<mxfile host="app.diagrams.net" modified="2023-10-26T20:20:26.755Z" agent="Mozilla/5.0 (X11; Linux x86_64) AppleWebKit/537.36 (KHTML, like Gecko) Chrome/118.0.0.0 Safari/537.36" etag="N6MJEs5vVh-rPJP98PJc" version="22.0.8" type="github">
  <diagram id="C5RBs43oDa-KdzZeNtuy" name="Page-1">
    <mxGraphModel dx="2394" dy="1294" grid="1" gridSize="10" guides="1" tooltips="1" connect="1" arrows="1" fold="1" page="1" pageScale="1" pageWidth="827" pageHeight="1169" math="0" shadow="0">
      <root>
        <mxCell id="WIyWlLk6GJQsqaUBKTNV-0" />
        <mxCell id="WIyWlLk6GJQsqaUBKTNV-1" parent="WIyWlLk6GJQsqaUBKTNV-0" />
        <mxCell id="FYUxpJFBL8Hn4Tp3HwG8-54" style="edgeStyle=orthogonalEdgeStyle;rounded=0;orthogonalLoop=1;jettySize=auto;html=1;entryX=0.5;entryY=0;entryDx=0;entryDy=0;" edge="1" parent="WIyWlLk6GJQsqaUBKTNV-1" source="WIyWlLk6GJQsqaUBKTNV-3" target="FYUxpJFBL8Hn4Tp3HwG8-51">
          <mxGeometry relative="1" as="geometry" />
        </mxCell>
        <mxCell id="WIyWlLk6GJQsqaUBKTNV-3" value="User enter site" style="rounded=1;whiteSpace=wrap;html=1;fontSize=12;glass=0;strokeWidth=1;shadow=0;" parent="WIyWlLk6GJQsqaUBKTNV-1" vertex="1">
          <mxGeometry x="100" y="80" width="120" height="40" as="geometry" />
        </mxCell>
        <mxCell id="WIyWlLk6GJQsqaUBKTNV-7" value="Create account" style="rounded=1;whiteSpace=wrap;html=1;fontSize=12;glass=0;strokeWidth=1;shadow=0;" parent="WIyWlLk6GJQsqaUBKTNV-1" vertex="1">
          <mxGeometry x="670" y="420" width="120" height="40" as="geometry" />
        </mxCell>
        <mxCell id="WIyWlLk6GJQsqaUBKTNV-11" value="display Feed" style="rounded=1;whiteSpace=wrap;html=1;fontSize=12;glass=0;strokeWidth=1;shadow=0;" parent="WIyWlLk6GJQsqaUBKTNV-1" vertex="1">
          <mxGeometry x="100" y="1070" width="120" height="40" as="geometry" />
        </mxCell>
        <mxCell id="FYUxpJFBL8Hn4Tp3HwG8-24" value="" style="edgeStyle=orthogonalEdgeStyle;rounded=0;orthogonalLoop=1;jettySize=auto;html=1;" edge="1" parent="WIyWlLk6GJQsqaUBKTNV-1" source="FYUxpJFBL8Hn4Tp3HwG8-2" target="FYUxpJFBL8Hn4Tp3HwG8-23">
          <mxGeometry relative="1" as="geometry" />
        </mxCell>
        <mxCell id="FYUxpJFBL8Hn4Tp3HwG8-2" value="display Profile" style="whiteSpace=wrap;html=1;rounded=1;glass=0;strokeWidth=1;shadow=0;" vertex="1" parent="WIyWlLk6GJQsqaUBKTNV-1">
          <mxGeometry x="960" y="420" width="120" height="40" as="geometry" />
        </mxCell>
        <mxCell id="FYUxpJFBL8Hn4Tp3HwG8-22" style="edgeStyle=orthogonalEdgeStyle;rounded=0;orthogonalLoop=1;jettySize=auto;html=1;exitX=0.5;exitY=1;exitDx=0;exitDy=0;" edge="1" parent="WIyWlLk6GJQsqaUBKTNV-1">
          <mxGeometry relative="1" as="geometry">
            <mxPoint x="400" y="260" as="sourcePoint" />
            <mxPoint x="400" y="260" as="targetPoint" />
          </mxGeometry>
        </mxCell>
        <mxCell id="FYUxpJFBL8Hn4Tp3HwG8-26" value="" style="edgeStyle=orthogonalEdgeStyle;rounded=0;orthogonalLoop=1;jettySize=auto;html=1;" edge="1" parent="WIyWlLk6GJQsqaUBKTNV-1" source="FYUxpJFBL8Hn4Tp3HwG8-23" target="FYUxpJFBL8Hn4Tp3HwG8-25">
          <mxGeometry relative="1" as="geometry" />
        </mxCell>
        <mxCell id="FYUxpJFBL8Hn4Tp3HwG8-27" value="Yes" style="edgeLabel;html=1;align=center;verticalAlign=middle;resizable=0;points=[];" vertex="1" connectable="0" parent="FYUxpJFBL8Hn4Tp3HwG8-26">
          <mxGeometry x="0.0444" y="-1" relative="1" as="geometry">
            <mxPoint as="offset" />
          </mxGeometry>
        </mxCell>
        <mxCell id="FYUxpJFBL8Hn4Tp3HwG8-29" value="" style="edgeStyle=orthogonalEdgeStyle;rounded=0;orthogonalLoop=1;jettySize=auto;html=1;" edge="1" parent="WIyWlLk6GJQsqaUBKTNV-1" source="FYUxpJFBL8Hn4Tp3HwG8-23" target="FYUxpJFBL8Hn4Tp3HwG8-28">
          <mxGeometry relative="1" as="geometry" />
        </mxCell>
        <mxCell id="FYUxpJFBL8Hn4Tp3HwG8-30" value="No" style="edgeLabel;html=1;align=center;verticalAlign=middle;resizable=0;points=[];" vertex="1" connectable="0" parent="FYUxpJFBL8Hn4Tp3HwG8-29">
          <mxGeometry x="-0.3333" y="-2" relative="1" as="geometry">
            <mxPoint as="offset" />
          </mxGeometry>
        </mxCell>
        <mxCell id="FYUxpJFBL8Hn4Tp3HwG8-23" value="has&lt;br&gt;invitation?" style="rhombus;whiteSpace=wrap;html=1;rounded=1;glass=0;strokeWidth=1;shadow=0;" vertex="1" parent="WIyWlLk6GJQsqaUBKTNV-1">
          <mxGeometry x="1250" y="400" width="80" height="80" as="geometry" />
        </mxCell>
        <mxCell id="FYUxpJFBL8Hn4Tp3HwG8-75" style="edgeStyle=orthogonalEdgeStyle;rounded=0;orthogonalLoop=1;jettySize=auto;html=1;entryX=1;entryY=0.75;entryDx=0;entryDy=0;" edge="1" parent="WIyWlLk6GJQsqaUBKTNV-1" source="FYUxpJFBL8Hn4Tp3HwG8-25" target="WIyWlLk6GJQsqaUBKTNV-11">
          <mxGeometry relative="1" as="geometry">
            <Array as="points">
              <mxPoint x="1290" y="1100" />
            </Array>
          </mxGeometry>
        </mxCell>
        <mxCell id="FYUxpJFBL8Hn4Tp3HwG8-25" value="Accept invitation" style="whiteSpace=wrap;html=1;rounded=1;glass=0;strokeWidth=1;shadow=0;" vertex="1" parent="WIyWlLk6GJQsqaUBKTNV-1">
          <mxGeometry x="1230" y="570" width="120" height="60" as="geometry" />
        </mxCell>
        <mxCell id="FYUxpJFBL8Hn4Tp3HwG8-28" value="Send invitation" style="whiteSpace=wrap;html=1;rounded=1;glass=0;strokeWidth=1;shadow=0;" vertex="1" parent="WIyWlLk6GJQsqaUBKTNV-1">
          <mxGeometry x="1450" y="410" width="120" height="60" as="geometry" />
        </mxCell>
        <mxCell id="FYUxpJFBL8Hn4Tp3HwG8-33" style="edgeStyle=orthogonalEdgeStyle;rounded=0;orthogonalLoop=1;jettySize=auto;html=1;entryX=0;entryY=0.5;entryDx=0;entryDy=0;exitX=1;exitY=0.5;exitDx=0;exitDy=0;" edge="1" parent="WIyWlLk6GJQsqaUBKTNV-1" source="WIyWlLk6GJQsqaUBKTNV-7" target="FYUxpJFBL8Hn4Tp3HwG8-2">
          <mxGeometry relative="1" as="geometry">
            <mxPoint x="897" y="600" as="sourcePoint" />
          </mxGeometry>
        </mxCell>
        <mxCell id="FYUxpJFBL8Hn4Tp3HwG8-63" style="edgeStyle=orthogonalEdgeStyle;rounded=0;orthogonalLoop=1;jettySize=auto;html=1;entryX=0.5;entryY=0;entryDx=0;entryDy=0;" edge="1" parent="WIyWlLk6GJQsqaUBKTNV-1" source="FYUxpJFBL8Hn4Tp3HwG8-40" target="FYUxpJFBL8Hn4Tp3HwG8-62">
          <mxGeometry relative="1" as="geometry" />
        </mxCell>
        <mxCell id="FYUxpJFBL8Hn4Tp3HwG8-40" value="Google Sign In" style="rounded=1;whiteSpace=wrap;html=1;fontSize=12;glass=0;strokeWidth=1;shadow=0;" vertex="1" parent="WIyWlLk6GJQsqaUBKTNV-1">
          <mxGeometry x="450" y="300" width="120" height="40" as="geometry" />
        </mxCell>
        <mxCell id="FYUxpJFBL8Hn4Tp3HwG8-48" style="edgeStyle=orthogonalEdgeStyle;rounded=0;orthogonalLoop=1;jettySize=auto;html=1;exitX=0.5;exitY=1;exitDx=0;exitDy=0;" edge="1" parent="WIyWlLk6GJQsqaUBKTNV-1" source="FYUxpJFBL8Hn4Tp3HwG8-45" target="WIyWlLk6GJQsqaUBKTNV-11">
          <mxGeometry relative="1" as="geometry" />
        </mxCell>
        <mxCell id="FYUxpJFBL8Hn4Tp3HwG8-49" value="Yes" style="edgeLabel;html=1;align=center;verticalAlign=middle;resizable=0;points=[];" vertex="1" connectable="0" parent="FYUxpJFBL8Hn4Tp3HwG8-48">
          <mxGeometry x="0.0316" y="1" relative="1" as="geometry">
            <mxPoint as="offset" />
          </mxGeometry>
        </mxCell>
        <mxCell id="FYUxpJFBL8Hn4Tp3HwG8-50" style="edgeStyle=orthogonalEdgeStyle;rounded=0;orthogonalLoop=1;jettySize=auto;html=1;entryX=0.5;entryY=1;entryDx=0;entryDy=0;" edge="1" parent="WIyWlLk6GJQsqaUBKTNV-1" source="FYUxpJFBL8Hn4Tp3HwG8-45" target="FYUxpJFBL8Hn4Tp3HwG8-2">
          <mxGeometry relative="1" as="geometry" />
        </mxCell>
        <mxCell id="FYUxpJFBL8Hn4Tp3HwG8-60" value="No" style="edgeLabel;html=1;align=center;verticalAlign=middle;resizable=0;points=[];" vertex="1" connectable="0" parent="FYUxpJFBL8Hn4Tp3HwG8-50">
          <mxGeometry x="-0.172" y="2" relative="1" as="geometry">
            <mxPoint as="offset" />
          </mxGeometry>
        </mxCell>
        <mxCell id="FYUxpJFBL8Hn4Tp3HwG8-45" value="has&lt;br&gt;partner?" style="rhombus;whiteSpace=wrap;html=1;rounded=1;glass=0;strokeWidth=1;shadow=0;" vertex="1" parent="WIyWlLk6GJQsqaUBKTNV-1">
          <mxGeometry x="120" y="825" width="80" height="80" as="geometry" />
        </mxCell>
        <mxCell id="FYUxpJFBL8Hn4Tp3HwG8-52" style="edgeStyle=orthogonalEdgeStyle;rounded=0;orthogonalLoop=1;jettySize=auto;html=1;entryX=0.5;entryY=0;entryDx=0;entryDy=0;" edge="1" parent="WIyWlLk6GJQsqaUBKTNV-1" source="FYUxpJFBL8Hn4Tp3HwG8-51" target="FYUxpJFBL8Hn4Tp3HwG8-40">
          <mxGeometry relative="1" as="geometry" />
        </mxCell>
        <mxCell id="FYUxpJFBL8Hn4Tp3HwG8-53" value="No" style="edgeLabel;html=1;align=center;verticalAlign=middle;resizable=0;points=[];" vertex="1" connectable="0" parent="FYUxpJFBL8Hn4Tp3HwG8-52">
          <mxGeometry x="-0.1486" y="1" relative="1" as="geometry">
            <mxPoint as="offset" />
          </mxGeometry>
        </mxCell>
        <mxCell id="FYUxpJFBL8Hn4Tp3HwG8-55" style="rounded=0;orthogonalLoop=1;jettySize=auto;html=1;entryX=0.454;entryY=0.067;entryDx=0;entryDy=0;entryPerimeter=0;" edge="1" parent="WIyWlLk6GJQsqaUBKTNV-1" target="FYUxpJFBL8Hn4Tp3HwG8-45">
          <mxGeometry relative="1" as="geometry">
            <mxPoint x="149.9954929274071" y="314.4545070725929" as="sourcePoint" />
            <mxPoint x="156.52999999999997" y="825" as="targetPoint" />
          </mxGeometry>
        </mxCell>
        <mxCell id="FYUxpJFBL8Hn4Tp3HwG8-56" value="Yes" style="edgeLabel;html=1;align=center;verticalAlign=middle;resizable=0;points=[];" vertex="1" connectable="0" parent="FYUxpJFBL8Hn4Tp3HwG8-55">
          <mxGeometry y="1" relative="1" as="geometry">
            <mxPoint as="offset" />
          </mxGeometry>
        </mxCell>
        <mxCell id="FYUxpJFBL8Hn4Tp3HwG8-51" value="logged &lt;br&gt;in?" style="rhombus;whiteSpace=wrap;html=1;" vertex="1" parent="WIyWlLk6GJQsqaUBKTNV-1">
          <mxGeometry x="120" y="240" width="80" height="80" as="geometry" />
        </mxCell>
        <mxCell id="FYUxpJFBL8Hn4Tp3HwG8-64" style="edgeStyle=orthogonalEdgeStyle;rounded=0;orthogonalLoop=1;jettySize=auto;html=1;" edge="1" parent="WIyWlLk6GJQsqaUBKTNV-1" source="FYUxpJFBL8Hn4Tp3HwG8-62" target="WIyWlLk6GJQsqaUBKTNV-7">
          <mxGeometry relative="1" as="geometry" />
        </mxCell>
        <mxCell id="FYUxpJFBL8Hn4Tp3HwG8-65" value="No" style="edgeLabel;html=1;align=center;verticalAlign=middle;resizable=0;points=[];" vertex="1" connectable="0" parent="FYUxpJFBL8Hn4Tp3HwG8-64">
          <mxGeometry x="-0.1818" y="-1" relative="1" as="geometry">
            <mxPoint as="offset" />
          </mxGeometry>
        </mxCell>
        <mxCell id="FYUxpJFBL8Hn4Tp3HwG8-68" value="" style="rounded=0;orthogonalLoop=1;jettySize=auto;html=1;entryX=0.5;entryY=0.063;entryDx=0;entryDy=0;entryPerimeter=0;" edge="1" parent="WIyWlLk6GJQsqaUBKTNV-1" target="FYUxpJFBL8Hn4Tp3HwG8-45">
          <mxGeometry relative="1" as="geometry">
            <mxPoint x="478.61905130955665" y="458.2632410476454" as="sourcePoint" />
            <mxPoint x="153.16999999999996" y="821.6400000000001" as="targetPoint" />
          </mxGeometry>
        </mxCell>
        <mxCell id="FYUxpJFBL8Hn4Tp3HwG8-69" value="Yes" style="edgeLabel;html=1;align=center;verticalAlign=middle;resizable=0;points=[];" vertex="1" connectable="0" parent="FYUxpJFBL8Hn4Tp3HwG8-68">
          <mxGeometry x="0.0222" y="1" relative="1" as="geometry">
            <mxPoint as="offset" />
          </mxGeometry>
        </mxCell>
        <mxCell id="FYUxpJFBL8Hn4Tp3HwG8-62" value="has &lt;br&gt;acccount?" style="rhombus;whiteSpace=wrap;html=1;shadow=0;fontFamily=Helvetica;fontSize=12;align=center;strokeWidth=1;spacing=6;spacingTop=-4;" vertex="1" parent="WIyWlLk6GJQsqaUBKTNV-1">
          <mxGeometry x="460" y="400" width="100" height="80" as="geometry" />
        </mxCell>
      </root>
    </mxGraphModel>
  </diagram>
</mxfile>
